# xmcd
#
# Track frame offsets:
#   150
#   17205
#   33450
#   51593
#   69461
#   86384
#   104745
#   121568
#   133607
#   148010
#   166896
#   184052
#   200728
#
# Disc length: 2931 seconds
#
# Revision: 0
# Processed by: cddbd v1.5.2PL0 Copyright (c) Steve Scherf et al.
# Submitted via: uFREEDB ActiveX Control 1.5
#
DISCID=bb0b710d
DTITLE=Banda Mamunlengo - Vem Me Dar Amor
DYEAR=2007
DGENRE=Forró
TTITLE0=Vem Me Dar Amor
TTITLE1=Onde Foi Que Eu Errei
TTITLE2=Ai De Mim
TTITLE3=Doce Desejo
TTITLE4=O Troco
TTITLE5=Volta
TTITLE6=Diz Que Me Quer
TTITLE7=Fim de Jogo (Amor de São Tomé)
TTITLE8=Beijo Sapeca
TTITLE9=Desconfiança
TTITLE10=Lambada do Amor
TTITLE11=A Noite é Uma Criança
TTITLE12=Mambo de Mamulengo
EXTD=
EXTT0=
EXTT1=
EXTT2=
EXTT3=
EXTT4=
EXTT5=
EXTT6=
EXTT7=
EXTT8=
EXTT9=
EXTT10=
EXTT11=
EXTT12=
PLAYORDER=
